<svg width="380" height="123" viewBox="0 0 380 123" fill="none" xmlns="http://www.w3.org/2000/svg">
<mask id="path-1-outside-1_842_9955" maskUnits="userSpaceOnUse" x="-0.5" y="-0.033905" width="381" height="123" fill="black">
<rect fill="white" x="-0.5" y="-0.033905" width="381" height="123"/>
<path d="M78.713 0.966095L7.5 2.30851V29.4034L9.88022 80.6159L7.5 114.313L62.6032 115.966L200.757 113.729L301.436 115.966H373.083L376.5 55.5575L373.083 4.56645L301.436 2.30851H133.439L78.713 0.966095Z"/>
</mask>
<path d="M78.713 0.966095L7.5 2.30851V29.4034L9.88022 80.6159L7.5 114.313L62.6032 115.966L200.757 113.729L301.436 115.966H373.083L376.5 55.5575L373.083 4.56645L301.436 2.30851H133.439L78.713 0.966095Z" fill="#96D4E5"/>
<path d="M7.5 2.30851C23.4171 2.13348 39.3342 1.95846 55.2512 1.78343C63.0753 1.6974 70.8994 1.61136 78.7235 1.52533L78.6992 1.52526C96.9376 2.11598 115.176 2.70671 133.414 3.29743L133.439 3.29773C189.438 3.73749 245.437 4.17725 301.436 4.61701L301.363 4.61586C325.24 5.55606 349.116 6.49625 372.992 7.43644L370.218 4.75845C371.223 21.7644 372.229 38.7704 373.235 55.7764L373.232 55.3727C371.935 75.4999 370.638 95.6272 369.341 115.754L373.083 112.218C349.201 112.031 325.318 111.843 301.436 111.656L301.532 111.657C267.978 110.647 234.424 109.638 200.87 108.629L200.674 108.628C154.617 109.012 108.56 109.396 62.503 109.78L62.7886 109.782C44.4252 109.087 26.0619 108.392 7.69845 107.697L14.1029 114.78C14.9845 103.553 15.8661 92.3272 16.7477 81.101L16.7574 80.2963C16.3637 70.1002 15.9701 59.9041 15.5764 49.7081C15.3107 42.8271 15.045 35.9461 14.7794 29.0651L14.7872 29.4034C14.8581 20.3718 14.9291 11.3402 15 2.30851C10 2.30851 5 2.30851 0 2.30851C0.0709252 11.3401 0.14185 20.3718 0.212776 29.4034L0.220634 29.7418C0.594344 36.6177 0.968053 43.4937 1.34176 50.3697C1.89552 60.5583 2.44927 70.7469 3.00302 80.9355L3.01271 80.1308C2.30751 91.3695 1.60231 102.608 0.897116 113.847L0.462188 120.778L7.30155 120.93C25.6736 121.336 44.0456 121.743 62.4177 122.15L62.7033 122.152C108.749 121.044 154.794 119.937 200.839 118.829L200.644 118.829C234.209 119.311 267.775 119.793 301.34 120.276L301.436 120.277C325.318 120.089 349.201 119.902 373.083 119.714L376.654 119.686L376.825 116.178C377.806 96.0326 378.787 75.8875 379.768 55.7424L379.765 55.3387C378.493 38.3506 377.22 21.3625 375.948 4.37445L375.752 1.75745L373.173 1.69646C349.285 1.13135 325.397 0.566254 301.509 0.00115383L301.436 8.28505e-06C245.437 0.439768 189.438 0.879527 133.439 1.31929L133.463 1.31958C115.217 1.01537 96.9721 0.711148 78.7267 0.406931L78.7024 0.406862C70.8806 0.615763 63.0589 0.824663 55.2371 1.03356C39.3247 1.45855 23.4124 1.88353 7.5 2.30851ZM7.5 2.30851L0.00157261 2.50877L0 2.30851H15H7.5Z" fill="#F3B0CD" mask="url(#path-1-outside-1_842_9955)"/>
</svg>
